<?xml version="1.0" encoding="UTF-8" standalone="no"?>
<!-- Created with Inkscape (http://www.inkscape.org/) -->

<svg
   version="1.1"
   id="svg2"
   width="576"
   height="200"
   viewBox="0 0 576 200"
   sodipodi:docname="TF-assignment-venn-diagram.svg"
   inkscape:version="1.2.2 (1:1.2.2+202212051550+b0a8486541)"
   xmlns:inkscape="http://www.inkscape.org/namespaces/inkscape"
   xmlns:sodipodi="http://sodipodi.sourceforge.net/DTD/sodipodi-0.dtd"
   xmlns="http://www.w3.org/2000/svg"
   xmlns:svg="http://www.w3.org/2000/svg">
  <defs
     id="defs6" />
  <sodipodi:namedview
     id="namedview4"
     pagecolor="#ffffff"
     bordercolor="#666666"
     borderopacity="1.0"
     inkscape:showpageshadow="2"
     inkscape:pageopacity="0.0"
     inkscape:pagecheckerboard="0"
     inkscape:deskcolor="#d1d1d1"
     showgrid="false"
     inkscape:zoom="1.1588694"
     inkscape:cx="282.60302"
     inkscape:cy="95.351552"
     inkscape:window-width="1848"
     inkscape:window-height="1016"
     inkscape:window-x="72"
     inkscape:window-y="27"
     inkscape:window-maximized="1"
     inkscape:current-layer="g13526">
    <inkscape:page
       x="0"
       y="0"
       id="page8"
       width="576"
       height="200" />
  </sodipodi:namedview>
  <g
     id="g10"
     inkscape:groupmode="layer"
     inkscape:label="Page 1"
     transform="matrix(1.3333333,0,0,-1.3333333,0,576)">
    <g
       id="g12" />
    <g
       id="g14" />
    <g
       id="g16">
      <g
         id="g13547"
         transform="translate(-32.173155,62.607514)">
        <path
           d="m 124.1947,224.0261 2.02997,0.0993 2.02654,0.16432 2.0197,0.22937 2.00943,0.29099 2.00258,0.35603 1.98889,0.41764 1.9752,0.47927 1.95808,0.54431 1.94097,0.60252 1.92042,0.66755 1.89646,0.72575 1.87593,0.78395 1.84853,0.84215 1.82116,0.90377 1.79034,0.95854 1.76296,1.01331 1.7253,1.07151 1.3419,0.89008 -1.7835,-0.95512 -1.95123,-0.96539 -1.97862,-0.90376 -2.00943,-0.84215 -2.03681,-0.7771 -2.05736,-0.71206 -2.07789,-0.64702 -2.09844,-0.58197 -2.11554,-0.51693 -2.13267,-0.44503 -2.14293,-0.38342 -2.15663,-0.31152 -2.16347,-0.24306 -2.17033,-0.17802 -2.17716,-0.10612 -2.17717,-0.0377 -2.17717,0.0308 -2.17716,0.0959 -2.17032,0.16775 -2.16348,0.23622 -2.15662,0.30467 -2.14636,0.37315 -2.13266,0.43819 -2.11897,0.50666 -2.10186,0.57512 -2.08132,0.64017 -2.06077,0.70521 -2.036819,0.76683 -2.012853,0.8353 -1.985468,0.89692 -1.954655,0.95854 -1.923854,1.02016 -1.893034,1.08178 -1.855389,1.13656 -1.817727,1.19817 -1.780073,1.25637 -1.738995,1.30773 -1.697916,1.36592 -1.653415,1.41727 -1.608912,1.46862 -1.560987,1.51654 -1.513063,1.56791 -1.461714,1.61582 -1.410366,1.66033 -1.359017,1.70141 -1.300823,1.74591 -1.249475,1.78357 -1.187857,1.82465 -1.133085,1.86231 -1.071468,1.89311 -1.013272,1.93078 -0.951654,1.95816 -0.886614,1.98897 -0.828419,2.01636 -0.759954,2.04032 -0.263588,0.7771 0.112967,-0.47927 0.527175,-1.96501 0.588794,-1.94447 0.650411,-1.92392 0.712029,-1.90681 0.770224,-1.87942 0.828419,-1.85547 0.886614,-1.82807 0.944808,-1.80069 1.003003,-1.76645 1.054351,-1.73906 1.112546,-1.70141 1.163894,-1.66718 1.215242,-1.62609 1.266591,-1.59186 1.314516,-1.54736 1.365864,-1.50628 1.410366,-1.46177 1.458291,-1.41727 1.499369,-1.36935 1.543871,-1.32483 1.584951,-1.2735 1.622605,-1.22213 1.660261,-1.17079 1.697918,-1.11602 1.732147,-1.06466 1.766376,-1.00647 1.793768,-0.95169 1.824576,-0.89693 1.851959,-0.83529 1.879352,-0.77711 1.899888,-0.7189 1.92384,-0.65729 1.94097,-0.59908 1.96151,-0.53405 1.97519,-0.47242 1.99231,-0.41081 2.00258,-0.34575 2.01286,-0.28414 2.0197,-0.22252 2.02654,-0.15405 2.02997,-0.0924 2.02997,-0.0274 z"
           style="fill:#ffffff;fill-opacity:0.498;fill-rule:nonzero;stroke:none;stroke-width:1"
           id="path24" />
        <path
           d="m 70.148933,253.30609 1.359017,-1.70141 1.410366,-1.66033 1.461714,-1.61582 1.513063,-1.56791 1.560987,-1.51654 1.608912,-1.46862 1.653415,-1.41727 1.697916,-1.36592 1.738995,-1.30773 1.780073,-1.25637 1.817727,-1.19817 1.855389,-1.13656 1.893034,-1.08178 1.923854,-1.02016 1.954655,-0.95854 1.985468,-0.89692 2.012853,-0.8353 2.036819,-0.76683 2.06077,-0.70521 2.08132,-0.64017 2.10186,-0.57512 2.11897,-0.50666 2.13266,-0.43819 2.14636,-0.37315 2.15662,-0.30467 2.16348,-0.23622 2.17032,-0.16775 2.17716,-0.0959 2.17717,-0.0308 2.17717,0.0377 2.17716,0.10612 2.17033,0.17802 2.16347,0.24306 2.15663,0.31152 2.14293,0.38342 2.13267,0.44503 2.11554,0.51693 2.09844,0.58197 2.07789,0.64702 2.05736,0.71206 2.03681,0.7771 2.00943,0.84215 1.97862,0.90376 1.95123,0.96539 1.92043,1.03043 1.88961,1.0852 1.85196,1.14683 1.81431,1.20502 1.77323,1.26322 1.73557,1.31457 1.69107,1.37276 1.64999,1.4207 1.60207,1.47546 1.55414,1.52682 1.50622,1.57133 1.45828,1.61925 1.40353,1.66717 1.34874,1.70825 1.2974,1.74934 1.23921,1.79042 1.18443,1.82807 1.12624,1.86573 1.06462,1.89997 1.003,1.93077 0.94481,1.96501 0.87977,1.99239 0.81815,2.01636 0.75311,2.04374 0.68806,2.06771 0.62303,2.08483 0.55799,2.10536 0.48951,2.12249 0.42448,2.13617 0.35259,2.14987 0.28755,2.16014 0.21909,2.16698 0.15062,2.17042 0.0822,2.17725 0.0137,2.17725 -0.0548,2.17726 -0.12666,2.17726 -0.1917,2.16699 -0.26017,2.16356 -0.33205,2.15329 -0.39709,2.1396 -0.46556,2.12933 -0.5306,2.11221 -0.59906,2.09509 -0.66411,2.07113 -0.72914,2.05402 -0.79076,2.02662 -0.85923,2.00267 -0.91742,1.97528 -0.98247,1.94447 -1.04408,1.91023 -1.10228,1.87942 -1.16047,1.84177 -1.21866,1.80753 -1.27686,1.76303 -1.32822,1.72538 -1.38639,1.68086 -1.43433,1.63979 -1.4891,1.58844 -1.53703,1.54394 -1.58495,1.49258 -1.62945,1.44466 -1.67738,1.38988 -1.71846,1.33854 -1.75953,1.28033 -1.80061,1.22898 -1.83827,1.16737 -1.8725,1.10917 -1.90673,1.05097 -1.94097,0.98935 -1.97177,0.92773 -1.99916,0.86611 -2.02312,0.80106 -2.05051,0.73945 -2.07104,0.67098 -2.09159,0.60593 -2.10871,0.54089 -2.12581,0.47242 -2.13951,0.40739 -2.15321,0.33891 -2.16005,0.27044 -2.17032,0.19856 -2.17374,0.13351 -2.17717,0.0651 -2.17716,-0.004 -2.17717,-0.0719 -2.17375,-0.14378 -2.16689,-0.20883 -2.16005,-0.27729 -2.14978,-0.34919 -2.13609,-0.41422 -2.12582,-0.47927 -2.1087,-0.54773 -2.08817,-0.61621 -2.06762,-0.68125 -2.04708,-0.74287 -2.023128,-0.81134 -1.995735,-0.87295 -1.964928,-0.93458 -1.937536,-0.9962 -1.903314,-1.05781 -1.869078,-1.11944 -1.834842,-1.17421 -1.793766,-1.23241 -1.756111,-1.29061 -1.715033,-1.34538 -1.67053,-1.39673 -1.622606,-1.44808 -1.581526,-1.49942 -1.530179,-1.55079 -1.482253,-1.59529 -1.427482,-1.64321 -1.379557,-1.68771 -1.321363,-1.7288 -1.270013,-1.76987 -1.21182,-1.81096 -1.153624,-1.84519 -1.09543,-1.88285 -1.033812,-1.91708 -0.975617,-1.94789 -0.913999,-1.9787 -0.848958,-2.00609 -0.783917,-2.03005 -0.722299,-2.05401 -0.653835,-2.07798 -0.592217,-2.0951 -0.523752,-2.11563 -0.455288,-2.12933 -0.390247,-2.14302 -0.321783,-2.1533 -0.253317,-2.16356 -0.184854,-2.17041 -0.112966,-2.17383 -0.04792,-2.17725 0.02054,-2.18068 0.089,-2.17384 0.160891,-2.17383 0.225932,-2.16356 0.294397,-2.16014 0.366284,-2.14645 0.431326,-2.13617 0.496366,-2.11906 0.564831,-2.10195 0.629872,-2.08482 0.698336,-2.06428 0.759955,-2.04032 0.828419,-2.01637 0.886614,-1.98896 0.951654,-1.95816 1.013272,-1.93078 1.071468,-1.89312 1.133085,-1.8623 1.187857,-1.82465 1.249475,-1.78357 1.300822,-1.74591"
           style="fill:#d9d9d9;fill-opacity:0.501961;stroke:#000000;stroke-width:0.75;stroke-linecap:round;stroke-linejoin:round;stroke-miterlimit:10;stroke-dasharray:none;stroke-opacity:1"
           id="path38" />
        <path
           d="m 161.49463,262.69071 0.28755,-0.35945 0.29782,-0.34919 0.31151,-0.34233 0.31837,-0.33207 0.33205,-0.3218 0.3389,-0.31152 0.34916,-0.29783 0.35944,-0.29099 0.36971,-0.27729 0.37655,-0.2636 0.3834,-0.25333 0.39368,-0.24306 0.40051,-0.22936 0.40736,-0.21567 0.41422,-0.20198 0.42105,-0.18828 0.42448,-0.17802 0.43133,-0.16432 0.43474,-0.1472 0.4416,-0.13694 0.44502,-0.11982 0.44844,-0.10612 0.45186,-0.0959 0.45187,-0.0787 0.45871,-0.0616 0.45871,-0.0514 0.45872,-0.0342 0.45871,-0.024 0.46213,-0.004 0.46213,0.007 0.45871,0.024 0.45871,0.0342 0.45872,0.0548 0.45529,0.0651 0.45528,0.0787 0.45187,0.0958 0.44844,0.10955 0.44159,0.12324 0.4416,0.13694 0.43475,0.15062 0.43132,0.16432 0.42449,0.17802 0.42105,0.19171 0.41078,0.2054 0.40737,0.21567 0.40051,0.23279 0.39025,0.23963 0.3834,0.25675 0.37656,0.26702 0.36628,0.2773 0.35944,0.29098 0.34917,0.30126 0.3389,0.31152 0.32862,0.32522 0.31836,0.33207 0.3081,0.34233 0.29781,0.35261 0.28755,0.35945 0.27386,0.37315 0.26016,0.37657 0.25332,0.38683 0.23621,0.39712 0.22593,0.40053 0.21224,0.41081 0.19854,0.41422 0.18828,0.42107 0.17116,0.42793 0.16089,0.43134 0.1472,0.43819 0.13008,0.44161 0.11981,0.44504 0.1027,0.44846 0.089,0.45188 0.0753,0.4553 0.0616,0.45873 0.0445,0.45874 0.0342,0.45872 0.0171,0.46216 v 0.45873 l -0.0103,0.46216 -0.0274,0.45872 -0.0411,0.45873 -0.0548,0.45873 -0.0684,0.45531 -0.0856,0.4553 -0.0959,0.44846 -0.11297,0.44847 -0.12666,0.4416 -0.14035,0.4382 -0.15404,0.43477 -0.17116,0.43134 -0.18144,0.42449 -0.1917,0.41765 -0.20882,0.4108 -0.2225,0.40397 -0.23278,0.3971 -0.24647,0.39027 -0.25675,0.38341 -0.27043,0.37315 -0.2807,0.36287 -0.2944,0.35603 -0.30124,0.34918 -0.31494,0.33549 -0.3252,0.32523 -0.33548,0.31837 -0.34574,0.30468 -0.35602,0.2944 -0.36286,0.28414 -0.37313,0.27045 -0.37998,0.26018 -0.39025,0.24648 -0.39709,0.2362 -0.40394,0.22252 -0.41078,0.20883 -0.41422,0.19513 -0.42447,0.18486 -0.4279,0.16774 -0.43475,0.15748 -0.43818,0.14036 -0.44159,0.13009 -0.44844,0.11297 -0.44844,0.0993 -0.45187,0.089 -0.45529,0.0684 -0.45871,0.0582 -0.45871,0.0445 -0.46214,0.0274 -0.45871,0.0137 h -0.46213 l -0.45871,-0.0171 -0.46213,-0.0308 -0.45872,-0.0445 -0.45529,-0.0582 -0.45528,-0.0719 -0.45187,-0.089 -0.45186,-0.10271 -0.44502,-0.11639 -0.4416,-0.13009 -0.43817,-0.14378 -0.43474,-0.15747 -0.42791,-0.17117 -0.42106,-0.18486 -0.41763,-0.19856 -0.40736,-0.20882 -0.40394,-0.22595 -0.3971,-0.2362 -0.38682,-0.24648 -0.37998,-0.2636 -0.3697,-0.27045 -0.36286,-0.28414 -0.35602,-0.29783 -0.34232,-0.30468 -0.33547,-0.31838 -0.32521,-0.32863 -0.31152,-0.33892 -0.30466,-0.34576 -0.29098,-0.35602 -0.2807,-0.36631 -0.26701,-0.37657 -0.25674,-0.38341 -0.24305,-0.39026 -0.23278,-0.39711 -0.21908,-0.40739 -0.2054,-0.4108 -0.19512,-0.41765 -0.17801,-0.42449 -0.16773,-0.43134 -0.15062,-0.43477 -0.14036,-0.44162 -0.12323,-0.44161 -0.11297,-0.44846 -0.0959,-0.44846 -0.0821,-0.4553 -0.0685,-0.45531 -0.0514,-0.45873 -0.0411,-0.45873 -0.024,-0.46216 -0.0103,-0.45872 0.004,-0.46216 0.0205,-0.45873 0.0342,-0.46215 0.0479,-0.45873 0.0616,-0.45531 0.0787,-0.4553 0.089,-0.45188 0.10612,-0.44847 0.11981,-0.44504 0.1335,-0.4416 0.1472,-0.43477 0.1609,-0.43134 0.17458,-0.42793 0.18828,-0.42107 0.20197,-0.41422 0.21224,-0.40739 0.22935,-0.40053 0.23963,-0.39711 0.2499,-0.38342 0.26358,-0.37999 0.27728,-0.36972"
           style="fill:#ffffb3;fill-opacity:0.501961;stroke:#000000;stroke-width:0.75;stroke-linecap:round;stroke-linejoin:round;stroke-miterlimit:10;stroke-dasharray:none;stroke-opacity:1"
           id="path40" />
        <path
           d="m 90.495302,287.0413 0.931109,-1.17079 0.968775,-1.13997 1.006427,-1.10917 1.037233,-1.07494 1.074892,-1.04413 1.102277,-1.00988 1.136506,-0.97224 1.16732,-0.938 1.194699,-0.89692 1.22209,-0.86268 1.24947,-0.82161 1.27687,-0.78395 1.2974,-0.74286 1.32136,-0.7018 1.3419,-0.65728 1.36587,-0.6162 1.37955,-0.57171 1.40009,-0.5272 1.41721,-0.48611 1.42749,-0.43819 1.4446,-0.39369 1.45487,-0.34918 1.46513,-0.30125 1.47541,-0.25676 1.47883,-0.20882 1.4891,-0.1609 1.4891,-0.1164 1.49594,-0.0684 1.49595,-0.0205 1.49595,0.0274 1.49252,0.0719 1.49252,0.12324 1.48568,0.16774 1.48225,0.21225 1.47199,0.2636 1.46513,0.3081 1.45145,0.35261 1.44118,0.40053 1.4309,0.44504 1.41036,0.48954 1.40011,0.53404 1.37955,0.57513 1.35902,0.62305 1.3419,0.66413 1.31793,0.70521 1.29741,0.74629 1.27001,0.78737 1.24605,0.82846 1.22209,0.8661 1.19128,0.90377 1.16047,0.94142 1.13309,0.97908 1.10227,1.01332 1.06805,1.04755 1.03381,1.07836 0.99958,1.11259 0.96535,1.14682 0.92769,1.17079 0.89004,1.2016 0.85237,1.23241 0.81131,1.25637 0.77364,1.28034 0.73258,1.3043 0.68806,1.32826 0.65042,1.3488 0.60248,1.36593 0.56141,1.38645 0.52033,1.40358 0.4724,1.42069 0.4279,1.43439 0.3834,1.44466 0.33548,1.45835 0.29097,1.46862 0.24305,1.47547 0.19855,1.48231 0.15062,1.48916 0.10269,1.49259 0.0548,1.49258 0.0102,1.49601 -0.0377,1.49601 -0.0856,1.49258 -0.1335,1.49258 -0.18143,1.48574 -0.22594,1.47547 -0.27043,1.47204 -0.32178,1.46178 -0.36286,1.4515 -0.41079,1.43781 -0.45871,1.42412 -0.49979,1.41042 -0.54429,1.39331 -0.5888,1.37619 -0.63329,1.35565 -0.67437,1.33511 -0.71546,1.31457 -0.75653,1.28718 -0.79761,1.26664 -0.83869,1.23926 -0.87634,1.21529 -0.91058,1.18448 -0.95165,1.15367 -0.98589,1.12287 -1.02354,1.09547 -1.05435,1.05781 -1.08859,1.02702 -1.12281,0.99277 -1.1502,0.95511 -1.18101,0.91746 -1.2084,0.87981 -1.23578,0.84215 -1.26317,0.80448 -1.28713,0.76341 -1.31109,0.71891 -1.33163,0.68124 -1.35217,0.63675 -1.37272,0.59567 -1.39325,0.54773 -1.40693,0.50666 -1.42407,0.46215 -1.43432,0.41766 -1.45145,0.36971 -1.45829,0.32523 -1.47198,0.28071 -1.47541,0.23279 -1.48567,0.18486 -1.4891,0.13693 -1.49253,0.0924 -1.49595,0.0445 -1.49594,-0.004 -1.49595,-0.0479 -1.49252,-0.0993 -1.4891,-0.14379 -1.48226,-0.1917 -1.47882,-0.23621 -1.46856,-0.28415 -1.45829,-0.33206 -1.44802,-0.37657 -1.43433,-0.42107 -1.42064,-0.469 -1.40694,-0.51008 -1.38641,-0.55801 -1.37271,-0.59908 -1.34874,-0.64359 -1.33164,-0.68468 -1.30766,-0.72575 -1.28371,-0.76683 -1.25975,-0.80792 -1.23235,-0.84899 -1.20498,-0.88322 -1.177586,-0.92431 -1.14678,-0.95854 -1.119388,-0.9962 -1.081736,-1.03043 -1.054352,-1.06466 -1.0167,-1.09548 -0.982464,-1.12971 -0.944806,-1.15709 -0.910576,-1.18791 -0.869496,-1.21871 -0.831844,-1.24268 -0.794186,-1.26664 -0.753107,-1.29403 -0.71203,-1.31457 -0.667527,-1.33854 -0.626449,-1.35907 -0.58537,-1.37619 -0.537445,-1.39673 -0.496367,-1.41043 -0.448441,-1.42753 -0.407363,-1.44124 -0.359438,-1.4515 -0.314936,-1.46178 -0.267011,-1.47204 -0.219087,-1.47889 -0.174583,-1.48574 -0.126659,-1.49258 -0.07874,-1.49258 -0.03423,-1.49602 0.01712,-1.496 0.06162,-1.49601 0.109543,-1.49258 0.154045,-1.48574 0.20197,-1.48232 0.249895,-1.47546 0.29782,-1.4652 0.342321,-1.45835 0.386824,-1.44465 0.434749,-1.43097 0.479251,-1.41727 0.520328,-1.40358 0.568255,-1.38304 0.609333,-1.36591 0.653835,-1.34539 0.694912,-1.32483 0.739413,-1.30088 0.777075,-1.28033 0.814727,-1.25296 0.859222,-1.22556 0.893465,-1.19818"
           style="fill:#fb8072;fill-opacity:0.501961;stroke:#000000;stroke-width:0.75;stroke-linecap:round;stroke-linejoin:round;stroke-miterlimit:10;stroke-dasharray:none;stroke-opacity:1"
           id="path42" />
        <path
           d="m 74.088154,251.75445 1.23348,-1.55024 1.280152,-1.50691 1.330158,-1.46691 1.373497,-1.42356 1.420169,-1.38022 1.460174,-1.33354 1.503512,-1.29021 1.543516,-1.2402 1.580188,-1.19019 1.616859,-1.14018 1.653528,-1.08684 1.686868,-1.03684 1.720208,-0.98015 1.746874,-0.92681 1.776875,-0.87347 1.803548,-0.81347 1.83022,-0.75678 1.85022,-0.70012 1.87356,-0.6401 1.89022,-0.58343 1.91023,-0.52008 1.92356,-0.46008 1.94023,-0.40006 1.95023,-0.33672 1.96024,-0.27671 1.96689,-0.2167 1.97357,-0.15003 1.9769,-0.09 1.9769,-0.0267 1.98024,0.0333 1.9769,0.0967 1.97357,0.16002 1.9669,0.22337 1.9569,0.28338 1.95023,0.34672 1.9369,0.40673 1.92356,0.46675 1.9069,0.53008 1.89022,0.58676 1.87022,0.65011 1.84689,0.70677 1.82688,0.76346 1.80022,0.82013 1.77354,0.88014 1.74354,0.93349 1.71687,0.98682 1.6802,1.0435 1.6502,1.0935 1.61352,1.14685 1.57686,1.19686 1.53684,1.24687 1.50018,1.29354 1.45351,1.34021 1.4135,1.38355 1.37016,1.43024 1.3235,1.47357 1.27681,1.51357 1.22682,1.55025 1.1768,1.59025 1.12681,1.62693 1.07679,1.6636 1.02012,1.6936 0.97011,1.72694 0.91345,1.75695 0.85677,1.78362 0.80009,1.81029 0.74343,1.83363 0.68341,1.85696 0.62674,1.87696 0.56673,1.89697 0.50673,1.91365 0.44339,1.93031 0.38338,1.9403 0.32337,1.95365 0.26336,1.96031 0.19669,1.97032 0.13668,1.97364 0.0767,1.97699 0.01,1.98032 -0.05,1.98031 -0.11334,1.97365 -0.1767,1.97365 -0.23669,1.96364 -0.30004,1.95699 -0.36004,1.94697 -0.42338,1.93364 -0.48339,1.91698 -0.5434,1.90363 -0.6034,1.88697 -0.66008,1.86363 -0.72342,1.84363 -0.77677,1.82029 -0.83676,1.79363 -0.89344,1.76695 -0.94678,1.73694 -1.00345,1.70693 -1.05346,1.67361 -1.1068,1.64026 -1.16014,1.60692 -1.21014,1.56692 -1.25681,1.52691 -1.3035,1.4869 -1.35349,1.44691 -1.39683,1.40355 -1.44017,1.35689 -1.48351,1.3102 -1.52018,1.26354 -1.56352,1.21686 -1.60019,1.16352 -1.63687,1.11684 -1.66686,1.06018 -1.70354,1.01015 -1.73353,0.95349 -1.76355,0.90015 -1.79021,0.84346 -1.81689,0.7868 -1.84021,0.72677 -1.86356,0.67011 -1.88022,0.61011 -1.90356,0.55342 -1.91689,0.49007 -1.93023,0.43007 -1.9469,0.37006 -1.95357,0.30672 -1.96356,0.2467 -1.97024,0.18336 -1.9769,0.12002 -1.9769,0.0567 -1.98024,-0.004 -1.9769,-0.0667 -1.9769,-0.12668 -1.97023,-0.19003 -1.96024,-0.25338 -1.9569,-0.31671 -1.94022,-0.37673 -1.93024,-0.43674 -1.91689,-0.50008 -1.90023,-0.55676 -1.88022,-0.6201 -1.85689,-0.67677 -1.840217,-0.73345 -1.810216,-0.79346 -1.790212,-0.85013 -1.756879,-0.90681 -1.730199,-0.96016 -1.700204,-1.01683 -1.666864,-1.06683 -1.630194,-1.12352 -1.596859,-1.17019 -1.556852,-1.22019 -1.516847,-1.27021 -1.476842,-1.31687 -1.436838,-1.36356 -1.390165,-1.40688 -1.346827,-1.45357 -1.300154,-1.49023 -1.250149,-1.53358 -1.203477,-1.57359 -1.15347,-1.60693 -1.100131,-1.64692 -1.050125,-1.67694 -0.993452,-1.71027 -0.940111,-1.74362 -0.886773,-1.77028 -0.830098,-1.79695 -0.770092,-1.82029 -0.713418,-1.84696 -0.656744,-1.86697 -0.596738,-1.88697 -0.536731,-1.90697 -0.47339,-1.92031 -0.416716,-1.93697 -0.353375,-1.94698 -0.290034,-1.95698 -0.230028,-1.96698 -0.17002,-1.97032 -0.103346,-1.97698 -0.04334,-1.97698 0.01667,-1.98032 0.08334,-1.97698 0.143351,-1.97365 0.206691,-1.97031 0.270032,-1.96032 0.330039,-1.95031 0.390046,-1.94031 0.453388,-1.92697 0.513395,-1.91364 0.573401,-1.89364 0.633408,-1.87363 0.693416,-1.85696 0.750089,-1.8303 0.806763,-1.80695 0.863436,-1.78029 0.92011,-1.75361 0.976782,-1.72028 1.026789,-1.6936 1.083463,-1.65693 1.133467,-1.62359 1.183474,-1.58359"
           style="fill:#80b1d3;fill-opacity:0.501961;stroke:#000000;stroke-width:0.75;stroke-linecap:round;stroke-linejoin:round;stroke-miterlimit:10;stroke-dasharray:none;stroke-opacity:1"
           id="path44" />
        <text
           xml:space="preserve"
           transform="scale(0.99997951,-1.0000205)"
           style="font-style:normal;font-variant:normal;font-weight:normal;font-stretch:normal;font-size:10.9545px;font-family:Arial;-inkscape-font-specification:Arial;writing-mode:lr-tb;fill:#000000;fill-opacity:1;fill-rule:nonzero;stroke:none;stroke-width:1"
           id="text52"
           x="186.45291"
           y="-330.74164"><tspan
             x="186.45291"
             y="-330.74164"
             sodipodi:role="line"
             id="tspan50"
             style="stroke-width:1">23</tspan></text>
        <text
           xml:space="preserve"
           transform="scale(0.99997951,-1.0000205)"
           style="font-style:normal;font-variant:normal;font-weight:normal;font-stretch:normal;font-size:10.9545px;font-family:Arial;-inkscape-font-specification:Arial;writing-mode:lr-tb;fill:#000000;fill-opacity:1;fill-rule:nonzero;stroke:none;stroke-width:1"
           id="text80"
           x="188.74478"
           y="-252.37625"><tspan
             x="188.74478"
             y="-252.37625"
             id="tspan78"
             style="font-style:normal;font-variant:normal;font-weight:normal;font-stretch:normal;font-size:10.9545px;font-family:Arial;-inkscape-font-specification:Arial;stroke-width:1">1</tspan></text>
        <text
           xml:space="preserve"
           transform="scale(0.99997951,-1.0000205)"
           style="font-style:normal;font-variant:normal;font-weight:normal;font-stretch:normal;font-size:10.9545px;font-family:Arial;-inkscape-font-specification:Arial;writing-mode:lr-tb;fill:#000000;fill-opacity:1;fill-rule:nonzero;stroke:none;stroke-width:1"
           id="text84"
           x="124.31432"
           y="-353.94241"><tspan
             x="124.31432"
             y="-353.94241"
             sodipodi:role="line"
             id="tspan82"
             style="stroke-width:1">55</tspan></text>
        <text
           xml:space="preserve"
           transform="scale(0.99997953,-1.0000205)"
           style="font-style:normal;font-variant:normal;font-weight:normal;font-stretch:normal;font-size:10.9545px;font-family:Arial;-inkscape-font-specification:Arial;writing-mode:lr-tb;fill:#000000;fill-opacity:1;fill-rule:nonzero;stroke:none;stroke-width:1"
           id="text88"
           x="101.30354"
           y="-248.68826"><tspan
             x="101.30354"
             y="-248.68826"
             sodipodi:role="line"
             id="tspan86"
             style="stroke-width:1">276</tspan></text>
        <text
           xml:space="preserve"
           transform="scale(0.99997953,-1.0000205)"
           style="font-style:normal;font-variant:normal;font-weight:normal;font-stretch:normal;font-size:10.9545px;font-family:Arial;-inkscape-font-specification:Arial;writing-mode:lr-tb;fill:#000000;fill-opacity:1;fill-rule:nonzero;stroke:none;stroke-width:1"
           id="text92"
           x="164.02353"
           y="-268.353"><tspan
             x="164.02353"
             y="-268.353"
             sodipodi:role="line"
             id="tspan90"
             style="stroke-width:1">15</tspan></text>
        <text
           xml:space="preserve"
           transform="scale(0.99997953,-1.0000205)"
           style="font-style:normal;font-variant:normal;font-weight:normal;font-stretch:normal;font-size:10.9545px;font-family:Arial;-inkscape-font-specification:Arial;writing-mode:lr-tb;fill:#000000;fill-opacity:1;fill-rule:nonzero;stroke:none;stroke-width:1"
           id="text96"
           x="118.94965"
           y="-312.10437"><tspan
             x="118.94965"
             y="-312.10437"
             sodipodi:role="line"
             id="tspan94"
             style="stroke-width:1">229</tspan></text>
        <path
           style="fill:none;stroke:#000000;stroke-width:0.75px;stroke-linecap:butt;stroke-linejoin:miter;stroke-opacity:1"
           d="m 189.63204,329.1028 c -5.70437,-7.7232 -5.70437,-7.7232 -5.70437,-7.7232"
           id="path12017" />
        <path
           style="fill:none;stroke:#000000;stroke-width:0.75px;stroke-linecap:butt;stroke-linejoin:miter;stroke-opacity:1"
           d="m 189.63204,260.47793 c -5.70437,7.7232 -5.70437,7.7232 -5.70437,7.7232"
           id="path12017-3" />
      </g>
      <text
         xml:space="preserve"
         style="font-size:12px;line-height:1.25;font-family:sans-serif;-inkscape-font-specification:sans-serif;letter-spacing:-0.3375px;stroke-width:0.75"
         x="271.58887"
         y="-276.39557"
         id="text12149"
         transform="scale(1,-1)"><tspan
           sodipodi:role="line"
           id="tspan12147"
           style="stroke-width:0.75"
           x="271.58887"
           y="-276.39557" /></text>
      <g
         id="g13526"
         transform="translate(-32.173155,45.712045)">
        <text
           xml:space="preserve"
           transform="scale(1,-1)"
           style="font-style:normal;font-variant:normal;font-weight:normal;font-stretch:normal;font-size:18px;font-family:Arial;-inkscape-font-specification:Arial;writing-mode:lr-tb;fill:#000000;fill-opacity:1;fill-rule:nonzero;stroke:none"
           id="text56"
           x="241.49869"
           y="-315.66937"><tspan
             x="241.49869"
             y="-315.66937"
             sodipodi:role="line"
             id="tspan54">direct motif (16)</tspan></text>
        <circle
           style="fill:#ffffb3;fill-opacity:0.501961;stroke:#000000;stroke-width:0.75;stroke-dasharray:none;paint-order:markers fill stroke;stop-color:#000000"
           id="path12203-6-7"
           cx="229.79346"
           cy="-320.40082"
           transform="scale(1,-1)"
           r="6.7395" />
        <text
           xml:space="preserve"
           transform="scale(1,-1)"
           style="font-style:normal;font-variant:normal;font-weight:normal;font-stretch:normal;font-size:18px;font-family:Arial;-inkscape-font-specification:Arial;writing-mode:lr-tb;fill:#000000;fill-opacity:1;fill-rule:nonzero;stroke:none"
           id="text48"
           x="241.45474"
           y="-333.96832"><tspan
             x="241.45474"
             y="-333.96832"
             sodipodi:role="line"
             id="tspan46">expressed (599)</tspan></text>
        <text
           xml:space="preserve"
           transform="scale(1,-1)"
           style="font-style:normal;font-variant:normal;font-weight:normal;font-stretch:normal;font-size:18px;font-family:Arial;-inkscape-font-specification:Arial;writing-mode:lr-tb;fill:#000000;fill-opacity:1;fill-rule:nonzero;stroke:none"
           id="text64"
           x="240.9274"
           y="-297.37042"><tspan
             x="240.9274"
             y="-297.37042"
             sodipodi:role="line"
             id="tspan62">motif transfer (284)</tspan></text>
        <text
           xml:space="preserve"
           transform="scale(1,-1)"
           style="font-style:normal;font-variant:normal;font-weight:normal;font-stretch:normal;font-size:18px;line-height:0.9;font-family:Arial;-inkscape-font-specification:Arial;writing-mode:lr-tb;fill:#000000;fill-opacity:1;fill-rule:nonzero;stroke:none"
           id="text72"
           x="241.46353"
           y="-279.2912"><tspan
             x="241.46353"
             y="-279.2912"
             sodipodi:role="line"
             id="tspan70">correlation-based</tspan><tspan
             x="241.46353"
             y="-263.09119"
             sodipodi:role="line"
             id="tspan13689">assignment (520)</tspan></text>
        <circle
           style="fill:#d9d9d9;fill-opacity:0.501961;stroke:#000000;stroke-width:0.75;stroke-dasharray:none;paint-order:markers fill stroke;stop-color:#000000"
           id="path12203"
           cx="229.79346"
           cy="-338.62653"
           transform="scale(1,-1)"
           r="6.7395" />
        <circle
           style="fill:#fb8072;fill-opacity:0.501961;stroke:#000000;stroke-width:0.75;stroke-dasharray:none;paint-order:markers fill stroke;stop-color:#000000"
           id="path12203-6"
           cx="229.79346"
           cy="-302.17511"
           transform="scale(1,-1)"
           r="6.7395" />
        <circle
           style="fill:#80b1d3;fill-opacity:0.501961;stroke:#000000;stroke-width:0.75;stroke-dasharray:none;paint-order:markers fill stroke;stop-color:#000000"
           id="path12203-6-5"
           cx="229.79346"
           cy="-283.9494"
           transform="scale(1,-1)"
           r="6.7395" />
      </g>
    </g>
    <g
       id="g102" />
    <g
       id="g104" />
    <g
       id="g106" />
  </g>
</svg>
